<svg width="47" height="73" viewBox="0 0 47 73" fill="none" xmlns="http://www.w3.org/2000/svg">
<path d="M44.5954 18.521L40.7931 61.1161L23.7017 65.8544L6.65738 61.1228L2.85913 18.521H44.5954Z" fill="#264DE4"/>
<path d="M37.5382 58.4053L40.7875 22.0058H23.7276V62.2342L37.5382 58.4053Z" fill="#2965F1"/>
<path d="M11.5667 37.8063L12.035 43.0312H23.7274V37.8063H11.5667Z" fill="#EBEBEB"/>
<path d="M23.7271 27.2305H23.7091H10.6255L11.1004 32.4555H23.7271V27.2305Z" fill="#EBEBEB"/>
<path d="M23.7272 56.8127V51.3766L23.7043 51.3827L17.8852 49.8114L17.5132 45.6443H14.6856H12.2682L13.0002 53.8482L23.7031 56.8194L23.7272 56.8127Z" fill="#EBEBEB"/>
<path d="M12.6813 6.94536H19.0096V9.59174H15.3277V12.2381H19.0096V14.8845H12.6813V6.94536Z" fill="black"/>
<path d="M20.2758 6.94536H26.6042V9.24656H22.9222V9.7068H26.6042V14.9996H20.2758V12.5833H23.9578V12.1231H20.2758V6.94536Z" fill="black"/>
<path d="M27.8696 6.94536H34.1979V9.24656H30.516V9.7068H34.1979V14.9996H27.8696V12.5833H31.5515V12.1231H27.8696V6.94536Z" fill="black"/>
<path d="M30.1431 43.0308L29.5366 49.8072L23.7092 51.3801V56.816L34.4206 53.8473L34.4992 52.9646L35.727 39.209L35.8545 37.806L36.7977 27.2305H23.7092V32.4555H31.0716L30.5962 37.806H23.7092V43.0308H30.1431Z" fill="white"/>
</svg>
