<svg width="84" height="73" viewBox="0 0 84 73" fill="none" xmlns="http://www.w3.org/2000/svg">
<path d="M2.39198 44.8763H14.3833V45.3999H1.86835V26.7061H14.2785V27.2297H2.39198V35.3984H13.5716V35.9221H2.39198V44.8763ZM24.4661 31.9424H25.0945L20.1723 38.4355L25.5658 45.3999H24.9112L19.8319 38.8283L14.7788 45.3999H14.1505L19.5178 38.4355L14.6218 31.9424H15.3025L19.8319 38.0428L24.4661 31.9424ZM27.1426 50.0079H26.619V31.9424H27.1426V35.7126H27.195C27.3695 35.1192 27.6226 34.5781 27.9542 34.0894C28.2859 33.5832 28.6786 33.1468 29.1324 32.7803C29.5862 32.4137 30.1011 32.1344 30.6771 31.9424C31.2706 31.733 31.9077 31.6283 32.5884 31.6283C33.4786 31.6283 34.2728 31.8028 34.971 32.1519C35.6866 32.501 36.2888 32.9897 36.7775 33.6181C37.2837 34.2464 37.6677 34.9883 37.9295 35.8435C38.1913 36.6988 38.3222 37.6326 38.3222 38.645C38.3222 39.5875 38.1913 40.4864 37.9295 41.3417C37.6851 42.197 37.3186 42.9475 36.8299 43.5934C36.3586 44.2392 35.7651 44.7541 35.0495 45.1381C34.3339 45.5046 33.5135 45.6879 32.5884 45.6879C31.1571 45.6879 29.979 45.3214 29.0539 44.5883C28.1288 43.8377 27.5091 42.8515 27.195 41.6297H27.1426V50.0079ZM32.5884 45.1904C33.5135 45.1904 34.299 44.9984 34.9448 44.6144C35.6081 44.213 36.1491 43.7068 36.5681 43.0959C36.987 42.4675 37.2924 41.7694 37.4844 41.0014C37.6939 40.2159 37.7986 39.4304 37.7986 38.645C37.7986 37.7723 37.6851 36.9519 37.4582 36.1839C37.2488 35.3984 36.9259 34.709 36.4895 34.1155C36.0706 33.5046 35.5295 33.0246 34.8662 32.6755C34.2204 32.3264 33.4611 32.1519 32.5884 32.1519C31.7331 32.1519 30.9651 32.3264 30.2844 32.6755C29.6037 33.0246 29.0277 33.4959 28.5564 34.0894C28.1026 34.6828 27.7535 35.3723 27.5091 36.1577C27.2648 36.9432 27.1426 37.7723 27.1426 38.645C27.1426 40.757 27.6401 42.3803 28.635 43.5148C29.6299 44.6319 30.9477 45.1904 32.5884 45.1904ZM41.2051 45.3999H40.6815V31.9424H41.2051V35.2675H41.2575C41.3796 34.7614 41.5716 34.2901 41.8335 33.8537C42.0953 33.3999 42.4444 33.0072 42.8807 32.6755C43.3171 32.3439 43.832 32.0821 44.4255 31.8901C45.0364 31.6981 45.7433 31.6108 46.5462 31.6283V32.1519C45.6211 32.0995 44.8182 32.2304 44.1375 32.5446C43.4742 32.8414 42.9244 33.2603 42.488 33.8014C42.0516 34.325 41.7287 34.9359 41.5193 35.6341C41.3098 36.3323 41.2051 37.0479 41.2051 37.781V45.3999ZM47.1952 38.7759C47.2127 39.6835 47.3174 40.5301 47.5094 41.3155C47.7188 42.0835 48.033 42.7555 48.4519 43.3315C48.8708 43.9075 49.4119 44.3614 50.0752 44.693C50.7385 45.0246 51.5501 45.1904 52.5101 45.1904C53.9239 45.1904 55.0934 44.8239 56.0185 44.0908C56.961 43.3403 57.5458 42.2232 57.7727 40.7395H58.2963C58.1043 42.3104 57.4847 43.5323 56.4374 44.405C55.3901 45.2603 54.0985 45.6879 52.5625 45.6879C51.5152 45.7054 50.6163 45.5395 49.8658 45.1904C49.1327 44.8414 48.5305 44.3526 48.0592 43.7243C47.5879 43.0784 47.2388 42.3279 47.0119 41.4726C46.785 40.5999 46.6716 39.6661 46.6716 38.6712C46.6716 37.5541 46.8374 36.5592 47.169 35.6864C47.5007 34.8137 47.937 34.0806 48.4781 33.4872C49.0192 32.8763 49.6476 32.4137 50.3632 32.0995C51.0788 31.7854 51.8119 31.6283 52.5625 31.6283C53.6098 31.6283 54.5087 31.829 55.2592 32.2304C56.0272 32.6319 56.6468 33.1643 57.1181 33.8275C57.6068 34.4908 57.9559 35.2501 58.1654 36.1054C58.3923 36.9606 58.4883 37.8508 58.4534 38.7759H47.1952ZM57.9298 38.2523C57.9298 37.4319 57.8163 36.6552 57.5894 35.9221C57.3625 35.1715 57.0221 34.517 56.5683 33.9584C56.1319 33.3999 55.5821 32.9635 54.9188 32.6494C54.2556 32.3177 53.4876 32.1519 52.6148 32.1519C51.8818 32.1519 51.1923 32.2915 50.5465 32.5708C49.9181 32.8501 49.3596 33.2603 48.8708 33.8014C48.3996 34.325 48.0156 34.9621 47.7188 35.7126C47.4221 36.4632 47.2476 37.3097 47.1952 38.2523H57.9298ZM69.3188 35.9221C69.3188 35.2414 69.2141 34.6654 69.0047 34.1941C68.7952 33.7228 68.4985 33.3388 68.1145 33.0421C67.7305 32.7279 67.2679 32.501 66.7268 32.3614C66.2032 32.2217 65.6185 32.1519 64.9727 32.1519C64.0301 32.1519 63.2883 32.2828 62.7472 32.5446C62.2061 32.789 61.8047 33.077 61.5428 33.4086C61.281 33.7228 61.1152 34.037 61.0454 34.3512C60.9756 34.6654 60.9407 34.8835 60.9407 35.0057C60.9407 35.669 61.0716 36.1839 61.3334 36.5504C61.6127 36.8995 61.9792 37.1701 62.433 37.3621C62.9043 37.5541 63.4105 37.7199 63.9516 37.8595C64.5101 37.9992 65.1559 38.165 65.889 38.357C66.4127 38.4966 66.9276 38.645 67.4338 38.8021C67.9574 38.9417 68.4199 39.1424 68.8214 39.4043C69.2403 39.6661 69.5719 39.9977 69.8163 40.3992C70.0781 40.8006 70.209 41.3243 70.209 41.9701C70.209 42.6508 70.0607 43.2268 69.7639 43.6981C69.4847 44.1694 69.1094 44.5534 68.6381 44.8501C68.1843 45.1468 67.6607 45.3563 67.0672 45.4784C66.4912 45.6181 65.9152 45.6879 65.3392 45.6879C63.5414 45.6879 62.1799 45.2952 61.2548 44.5097C60.3472 43.7243 59.8934 42.485 59.8934 40.7919H60.417C60.417 42.3104 60.8359 43.4275 61.6738 44.1432C62.529 44.8414 63.7508 45.1904 65.3392 45.1904C65.8279 45.1904 66.3254 45.1381 66.8316 45.0334C67.3552 44.9112 67.8265 44.7279 68.2454 44.4835C68.6643 44.2217 69.0047 43.8901 69.2665 43.4886C69.5458 43.0872 69.6854 42.5984 69.6854 42.0224C69.6854 41.429 69.5458 40.949 69.2665 40.5824C69.0047 40.2159 68.6556 39.9192 68.2192 39.6923C67.8003 39.4479 67.3116 39.2559 66.753 39.1163C66.1945 38.9766 65.6272 38.837 65.0512 38.6974C64.4054 38.5403 63.8381 38.3919 63.3494 38.2523C62.8607 38.1126 62.4243 37.9555 62.0403 37.781C61.4818 37.5366 61.0716 37.1963 60.8098 36.7599C60.5479 36.3235 60.417 35.7388 60.417 35.0057C60.417 34.6392 60.4956 34.2552 60.6527 33.8537C60.8098 33.4523 61.0716 33.0857 61.4381 32.7541C61.8047 32.4224 62.2759 32.1519 62.8519 31.9424C63.4279 31.733 64.1348 31.6283 64.9727 31.6283C66.4738 31.6283 67.6607 31.9686 68.5334 32.6494C69.4061 33.3301 69.8425 34.421 69.8425 35.9221H69.3188ZM81.4382 35.9221C81.4382 35.2414 81.3334 34.6654 81.124 34.1941C80.9145 33.7228 80.6178 33.3388 80.2338 33.0421C79.8498 32.7279 79.3873 32.501 78.8462 32.3614C78.3225 32.2217 77.7378 32.1519 77.092 32.1519C76.1494 32.1519 75.4076 32.2828 74.8665 32.5446C74.3254 32.789 73.924 33.077 73.6622 33.4086C73.4003 33.7228 73.2345 34.037 73.1647 34.3512C73.0949 34.6654 73.06 34.8835 73.06 35.0057C73.06 35.669 73.1909 36.1839 73.4527 36.5504C73.732 36.8995 74.0985 37.1701 74.5523 37.3621C75.0236 37.5541 75.5298 37.7199 76.0709 37.8595C76.6294 37.9992 77.2753 38.165 78.0083 38.357C78.532 38.4966 79.0469 38.645 79.5531 38.8021C80.0767 38.9417 80.5393 39.1424 80.9407 39.4043C81.3596 39.6661 81.6913 39.9977 81.9356 40.3992C82.1974 40.8006 82.3283 41.3243 82.3283 41.9701C82.3283 42.6508 82.18 43.2268 81.8833 43.6981C81.604 44.1694 81.2287 44.5534 80.7574 44.8501C80.3036 45.1468 79.78 45.3563 79.1865 45.4784C78.6105 45.6181 78.0345 45.6879 77.4585 45.6879C75.6607 45.6879 74.2993 45.2952 73.3742 44.5097C72.4665 43.7243 72.0127 42.485 72.0127 40.7919H72.5363C72.5363 42.3104 72.9553 43.4275 73.7931 44.1432C74.6483 44.8414 75.8702 45.1904 77.4585 45.1904C77.9473 45.1904 78.4447 45.1381 78.9509 45.0334C79.4745 44.9112 79.9458 44.7279 80.3647 44.4835C80.7836 44.2217 81.124 43.8901 81.3858 43.4886C81.6651 43.0872 81.8047 42.5984 81.8047 42.0224C81.8047 41.429 81.6651 40.949 81.3858 40.5824C81.124 40.2159 80.7749 39.9192 80.3385 39.6923C79.9196 39.4479 79.4309 39.2559 78.8723 39.1163C78.3138 38.9766 77.7465 38.837 77.1705 38.6974C76.5247 38.5403 75.9574 38.3919 75.4687 38.2523C74.98 38.1126 74.5436 37.9555 74.1596 37.781C73.6011 37.5366 73.1909 37.1963 72.9291 36.7599C72.6673 36.3235 72.5363 35.7388 72.5363 35.0057C72.5363 34.6392 72.6149 34.2552 72.772 33.8537C72.9291 33.4523 73.1909 33.0857 73.5574 32.7541C73.924 32.4224 74.3953 32.1519 74.9713 31.9424C75.5473 31.733 76.2542 31.6283 77.092 31.6283C78.5931 31.6283 79.78 31.9686 80.6527 32.6494C81.5254 33.3301 81.9618 34.421 81.9618 35.9221H81.4382Z" fill="black"/>
</svg>
