<svg width="46" height="73" viewBox="0 0 46 73" fill="none" xmlns="http://www.w3.org/2000/svg">
<path d="M5.92651 6.94536H8.57282V9.56866H11.012V6.94536H13.6583V14.8843H11.012V12.238H8.59584V14.8843H5.92651M17.1561 9.59167H14.8204V6.94536H22.1496V9.59167H19.8024V14.8843H17.1561M23.3116 6.94536H26.0845L27.7874 9.74124L29.4902 6.94536H32.2631V14.8843H29.6168V10.9493L27.7643 13.8028L25.9119 10.9493V14.8843H23.3116M33.5747 6.94536H36.221V12.261H39.9719V14.8843H33.5747" fill="black"/>
<path d="M5.83463 61.1372L2.03775 18.5201H43.7804L39.9836 61.1142L22.8746 65.8545" fill="#E44D26"/>
<path d="M22.9094 62.2302V22.0178H39.9723L36.7162 58.3758" fill="#F16529"/>
<path d="M9.79291 27.229H22.9094V32.4526H15.5227L16.006 37.8028H22.9094V43.0149H11.2196M11.4497 45.6382H16.6963L17.0645 49.8147L22.9094 51.3795V56.8332L12.1861 53.8417" fill="#EBEBEB"/>
<path d="M35.9797 27.229H22.8862V32.4526H35.4964M35.0247 37.8028H22.8862V43.0264H29.3294L28.7196 49.8147L22.8862 51.3795V56.8102L33.5865 53.8417" fill="white"/>
</svg>
