<svg width="60" height="73" viewBox="0 0 60 73" fill="none" xmlns="http://www.w3.org/2000/svg">
<path d="M53.4501 18.3999H6.56641V64.2181H53.4501V18.3999Z" fill="#F7DF1E"/>
<path d="M37.8444 54.3039C38.7563 55.8767 39.9427 57.0327 42.041 57.0327C43.8037 57.0327 44.9297 56.1021 44.9297 54.8163C44.9297 53.2754 43.7728 52.7296 41.8326 51.8332L40.7691 51.3512C37.6993 49.9697 35.6599 48.239 35.6599 44.5804C35.6599 41.2101 38.0909 38.6445 41.8901 38.6445C44.5948 38.6445 46.5394 39.6389 47.9406 42.2425L44.6279 44.4893C43.8985 43.1078 43.1117 42.5635 41.8901 42.5635C40.644 42.5635 39.8543 43.3985 39.8543 44.4893C39.8543 45.8374 40.6448 46.3831 42.47 47.2181L43.5335 47.6993C47.148 49.3366 49.1888 51.0058 49.1888 54.7586C49.1888 58.8044 46.1801 61.0208 42.1394 61.0208C38.1886 61.0208 35.6362 59.0321 34.3873 56.4255L37.8444 54.3039ZM22.8166 54.6933C23.4849 55.9458 24.0928 57.0047 25.5544 57.0047C26.9521 57.0047 27.8338 56.427 27.8338 54.1809V38.9011H32.0878V54.2417C32.0878 58.8947 29.5052 61.0125 25.7355 61.0125C22.3294 61.0125 20.3568 59.1505 19.3537 56.9079L22.8166 54.6933Z" fill="black"/>
<path d="M7.89879 13.444C7.38279 13.444 6.95679 13.312 6.62079 13.048C6.28779 12.784 6.05079 12.427 5.90979 11.977L7.11579 11.689C7.14279 11.854 7.22979 11.998 7.37679 12.121C7.52379 12.241 7.67979 12.301 7.84479 12.301C7.95879 12.301 8.08029 12.2695 8.20929 12.2065C8.34129 12.1435 8.43579 12.043 8.49279 11.905C8.52879 11.818 8.54979 11.7115 8.55579 11.5855C8.56179 11.4595 8.56479 11.314 8.56479 11.149V6.82899H9.80679V11.149C9.80679 11.356 9.80529 11.536 9.80229 11.689C9.80229 11.842 9.78729 11.986 9.75729 12.121C9.73029 12.253 9.67479 12.391 9.59079 12.535C9.40779 12.853 9.16929 13.084 8.87529 13.228C8.58129 13.372 8.25579 13.444 7.89879 13.444ZM12.504 13.444C12.156 13.444 11.8605 13.378 11.6175 13.246C11.3775 13.111 11.1945 12.9325 11.0685 12.7105C10.9455 12.4855 10.884 12.238 10.884 11.968C10.884 11.743 10.9185 11.5375 10.9875 11.3515C11.0565 11.1655 11.1675 11.002 11.3205 10.861C11.4765 10.717 11.685 10.597 11.946 10.501C12.126 10.435 12.3405 10.3765 12.5895 10.3255C12.8385 10.2745 13.1205 10.2265 13.4355 10.1815C13.7505 10.1335 14.097 10.081 14.475 10.024L14.034 10.267C14.034 9.97899 13.965 9.76749 13.827 9.63249C13.689 9.49749 13.458 9.42999 13.134 9.42999C12.954 9.42999 12.7665 9.47349 12.5715 9.56049C12.3765 9.64749 12.24 9.80199 12.162 10.024L11.055 9.67299C11.178 9.27099 11.409 8.94399 11.748 8.69199C12.087 8.43999 12.549 8.31399 13.134 8.31399C13.563 8.31399 13.944 8.37999 14.277 8.51199C14.61 8.64399 14.862 8.87199 15.033 9.19599C15.129 9.37599 15.186 9.55599 15.204 9.73599C15.222 9.91599 15.231 10.117 15.231 10.339V13.309H14.16V12.31L14.313 12.517C14.076 12.844 13.8195 13.081 13.5435 13.228C13.2705 13.372 12.924 13.444 12.504 13.444ZM12.765 12.481C12.99 12.481 13.179 12.442 13.332 12.364C13.488 12.283 13.611 12.1915 13.701 12.0895C13.794 11.9875 13.857 11.902 13.89 11.833C13.953 11.701 13.989 11.548 13.998 11.374C14.01 11.197 14.016 11.05 14.016 10.933L14.376 11.023C14.013 11.083 13.719 11.134 13.494 11.176C13.269 11.215 13.0875 11.251 12.9495 11.284C12.8115 11.317 12.69 11.353 12.585 11.392C12.465 11.44 12.3675 11.4925 12.2925 11.5495C12.2205 11.6035 12.1665 11.6635 12.1305 11.7295C12.0975 11.7955 12.081 11.869 12.081 11.95C12.081 12.061 12.108 12.157 12.162 12.238C12.219 12.316 12.2985 12.376 12.4005 12.418C12.5025 12.46 12.624 12.481 12.765 12.481ZM17.5393 13.309L15.7753 8.44899H16.9993L18.1513 11.815L19.3033 8.44899H20.5273L18.7633 13.309H17.5393ZM22.4181 13.444C22.0701 13.444 21.7746 13.378 21.5316 13.246C21.2916 13.111 21.1086 12.9325 20.9826 12.7105C20.8596 12.4855 20.7981 12.238 20.7981 11.968C20.7981 11.743 20.8326 11.5375 20.9016 11.3515C20.9706 11.1655 21.0816 11.002 21.2346 10.861C21.3906 10.717 21.5991 10.597 21.8601 10.501C22.0401 10.435 22.2546 10.3765 22.5036 10.3255C22.7526 10.2745 23.0346 10.2265 23.3496 10.1815C23.6646 10.1335 24.0111 10.081 24.3891 10.024L23.9481 10.267C23.9481 9.97899 23.8791 9.76749 23.7411 9.63249C23.6031 9.49749 23.3721 9.42999 23.0481 9.42999C22.8681 9.42999 22.6806 9.47349 22.4856 9.56049C22.2906 9.64749 22.1541 9.80199 22.0761 10.024L20.9691 9.67299C21.0921 9.27099 21.3231 8.94399 21.6621 8.69199C22.0011 8.43999 22.4631 8.31399 23.0481 8.31399C23.4771 8.31399 23.8581 8.37999 24.1911 8.51199C24.5241 8.64399 24.7761 8.87199 24.9471 9.19599C25.0431 9.37599 25.1001 9.55599 25.1181 9.73599C25.1361 9.91599 25.1451 10.117 25.1451 10.339V13.309H24.0741V12.31L24.2271 12.517C23.9901 12.844 23.7336 13.081 23.4576 13.228C23.1846 13.372 22.8381 13.444 22.4181 13.444ZM22.6791 12.481C22.9041 12.481 23.0931 12.442 23.2461 12.364C23.4021 12.283 23.5251 12.1915 23.6151 12.0895C23.7081 11.9875 23.7711 11.902 23.8041 11.833C23.8671 11.701 23.9031 11.548 23.9121 11.374C23.9241 11.197 23.9301 11.05 23.9301 10.933L24.2901 11.023C23.9271 11.083 23.6331 11.134 23.4081 11.176C23.1831 11.215 23.0016 11.251 22.8636 11.284C22.7256 11.317 22.6041 11.353 22.4991 11.392C22.3791 11.44 22.2816 11.4925 22.2066 11.5495C22.1346 11.6035 22.0806 11.6635 22.0446 11.7295C22.0116 11.7955 21.9951 11.869 21.9951 11.95C21.9951 12.061 22.0221 12.157 22.0761 12.238C22.1331 12.316 22.2126 12.376 22.3146 12.418C22.4166 12.46 22.5381 12.481 22.6791 12.481ZM28.7632 13.444C28.2832 13.444 27.8497 13.36 27.4627 13.192C27.0787 13.021 26.7622 12.778 26.5132 12.463C26.2672 12.145 26.1112 11.767 26.0452 11.329L27.3232 11.14C27.4132 11.512 27.5992 11.7985 27.8812 11.9995C28.1632 12.2005 28.4842 12.301 28.8442 12.301C29.0452 12.301 29.2402 12.2695 29.4292 12.2065C29.6182 12.1435 29.7727 12.0505 29.8927 11.9275C30.0157 11.8045 30.0772 11.653 30.0772 11.473C30.0772 11.407 30.0667 11.344 30.0457 11.284C30.0277 11.221 29.9962 11.1625 29.9512 11.1085C29.9062 11.0545 29.8417 11.0035 29.7577 10.9555C29.6767 10.9075 29.5732 10.864 29.4472 10.825L27.7642 10.33C27.6382 10.294 27.4912 10.243 27.3232 10.177C27.1582 10.111 26.9977 10.0165 26.8417 9.89349C26.6857 9.77049 26.5552 9.60849 26.4502 9.40749C26.3482 9.20349 26.2972 8.94699 26.2972 8.63799C26.2972 8.20299 26.4067 7.84149 26.6257 7.55349C26.8447 7.26549 27.1372 7.05099 27.5032 6.90999C27.8692 6.76899 28.2742 6.69999 28.7182 6.70299C29.1652 6.70899 29.5642 6.78549 29.9152 6.93249C30.2662 7.07949 30.5602 7.29399 30.7972 7.57599C31.0342 7.85499 31.2052 8.19699 31.3102 8.60199L29.9872 8.82699C29.9392 8.61699 29.8507 8.43999 29.7217 8.29599C29.5927 8.15199 29.4382 8.04249 29.2582 7.96749C29.0812 7.89249 28.8952 7.85199 28.7002 7.84599C28.5082 7.83999 28.3267 7.86699 28.1557 7.92699C27.9877 7.98399 27.8497 8.06799 27.7417 8.17899C27.6367 8.28999 27.5842 8.42199 27.5842 8.57499C27.5842 8.71599 27.6277 8.83149 27.7147 8.92149C27.8017 9.00849 27.9112 9.07899 28.0432 9.13299C28.1752 9.18699 28.3102 9.23199 28.4482 9.26799L29.5732 9.57399C29.7412 9.61899 29.9272 9.67899 30.1312 9.75399C30.3352 9.82599 30.5302 9.92799 30.7162 10.06C30.9052 10.189 31.0597 10.36 31.1797 10.573C31.3027 10.786 31.3642 11.056 31.3642 11.383C31.3642 11.731 31.2907 12.0355 31.1437 12.2965C30.9997 12.5545 30.8047 12.769 30.5587 12.94C30.3127 13.108 30.0337 13.234 29.7217 13.318C29.4127 13.402 29.0932 13.444 28.7632 13.444ZM34.4953 13.444C33.9913 13.444 33.5593 13.3315 33.1993 13.1065C32.8393 12.8815 32.5633 12.5755 32.3713 12.1885C32.1793 11.8015 32.0833 11.365 32.0833 10.879C32.0833 10.387 32.1823 9.94749 32.3803 9.56049C32.5813 9.17349 32.8633 8.86899 33.2263 8.64699C33.5893 8.42499 34.0183 8.31399 34.5133 8.31399C35.0863 8.31399 35.5663 8.45949 35.9533 8.75049C36.3433 9.03849 36.5923 9.43299 36.7003 9.93399L35.4763 10.258C35.4043 10.006 35.2783 9.80949 35.0983 9.66849C34.9213 9.52749 34.7203 9.45699 34.4953 9.45699C34.2373 9.45699 34.0258 9.51999 33.8608 9.64599C33.6958 9.76899 33.5743 9.93849 33.4963 10.1545C33.4183 10.3675 33.3793 10.609 33.3793 10.879C33.3793 11.302 33.4723 11.6455 33.6583 11.9095C33.8473 12.1705 34.1263 12.301 34.4953 12.301C34.7713 12.301 34.9813 12.238 35.1253 12.112C35.2693 11.986 35.3773 11.806 35.4493 11.572L36.7003 11.833C36.5623 12.349 36.3013 12.7465 35.9173 13.0255C35.5333 13.3045 35.0593 13.444 34.4953 13.444ZM37.6003 13.309V8.44899H38.6803V9.63699L38.5633 9.48399C38.6263 9.31599 38.7103 9.16299 38.8153 9.02499C38.9203 8.88699 39.0493 8.77299 39.2023 8.68299C39.3193 8.61099 39.4468 8.55549 39.5848 8.51649C39.7228 8.47449 39.8653 8.44899 40.0123 8.43999C40.1593 8.42799 40.3063 8.43099 40.4533 8.44899V9.59199C40.3183 9.54999 40.1608 9.53649 39.9808 9.55149C39.8038 9.56349 39.6433 9.60399 39.4993 9.67299C39.3553 9.73899 39.2338 9.82749 39.1348 9.93849C39.0358 10.0465 38.9608 10.1755 38.9098 10.3255C38.8588 10.4725 38.8333 10.639 38.8333 10.825V13.309H37.6003ZM41.3993 7.77399V6.69399H42.6233V7.77399H41.3993ZM41.3993 13.309V8.44899H42.6233V13.309H41.3993ZM46.3574 13.444C45.8744 13.444 45.4709 13.3315 45.1469 13.1065C44.8229 12.8815 44.5784 12.5755 44.4134 12.1885C44.2514 11.8015 44.1704 11.365 44.1704 10.879C44.1704 10.393 44.2514 9.95649 44.4134 9.56949C44.5754 9.18249 44.8139 8.87649 45.1289 8.65149C45.4439 8.42649 45.8324 8.31399 46.2944 8.31399C46.7594 8.31399 47.1644 8.42499 47.5094 8.64699C47.8544 8.86899 48.1214 9.17349 48.3104 9.56049C48.5024 9.94449 48.5984 10.384 48.5984 10.879C48.5984 11.365 48.5039 11.8015 48.3149 12.1885C48.1289 12.5755 47.8679 12.8815 47.5319 13.1065C47.1959 13.3315 46.8044 13.444 46.3574 13.444ZM43.9634 15.469V8.44899H45.0434V11.779H45.1964V15.469H43.9634ZM46.1594 12.355C46.4234 12.355 46.6394 12.289 46.8074 12.157C46.9754 12.025 47.0999 11.848 47.1809 11.626C47.2619 11.401 47.3024 11.152 47.3024 10.879C47.3024 10.609 47.2604 10.363 47.1764 10.141C47.0924 9.91599 46.9619 9.73749 46.7849 9.60549C46.6109 9.47049 46.3874 9.40299 46.1144 9.40299C45.8594 9.40299 45.6524 9.46449 45.4934 9.58749C45.3374 9.71049 45.2234 9.88299 45.1514 10.105C45.0794 10.327 45.0434 10.585 45.0434 10.879C45.0434 11.173 45.0794 11.431 45.1514 11.653C45.2234 11.875 45.3404 12.0475 45.5024 12.1705C45.6674 12.2935 45.8864 12.355 46.1594 12.355ZM52.5046 13.309C52.1686 13.372 51.8386 13.399 51.5146 13.39C51.1936 13.384 50.9056 13.3285 50.6506 13.2235C50.3986 13.1155 50.2066 12.943 50.0746 12.706C49.9546 12.484 49.8916 12.259 49.8856 12.031C49.8796 11.8 49.8766 11.539 49.8766 11.248V7.09899H51.1006V11.176C51.1006 11.365 51.1021 11.536 51.1051 11.689C51.1111 11.839 51.1426 11.959 51.1996 12.049C51.3076 12.22 51.4801 12.313 51.7171 12.328C51.9541 12.343 52.2166 12.331 52.5046 12.292V13.309ZM49.0486 9.39399V8.44899H52.5046V9.39399H49.0486Z" fill="black"/>
</svg>
