<svg width="96" height="88" viewBox="0 0 96 88" fill="none" xmlns="http://www.w3.org/2000/svg">
<g clip-path="url(#clip0_18414_85562)">
<path d="M23.6236 62.3834H20.1005C19.9759 55.8617 19.6328 49.7305 19.0719 43.9853H19.0405L13.6766 62.3834H10.9944L5.66244 43.9853H5.63181C5.23627 49.5013 4.9871 55.634 4.88363 62.3834H1.67236C1.87932 54.1758 2.39944 46.4812 3.23068 39.2988H7.59723L12.6793 56.2611H12.7106L17.824 39.2988H22.002C22.9169 47.7117 23.4575 55.407 23.6236 62.3834ZM38.9024 45.3516C37.468 53.8884 35.5754 60.0913 33.2267 63.9632C31.3968 66.9437 29.3919 68.4354 27.2086 68.4354C26.6265 68.4354 25.9083 68.2428 25.0573 67.8605V65.8021C25.4733 65.8678 25.9614 65.9051 26.5224 65.9051C27.5422 65.9051 28.3619 65.5975 28.9868 64.9808C29.7343 64.2297 30.1081 63.3853 30.1081 62.4513C30.1081 61.8107 29.8167 60.5012 29.2353 58.5181L25.3691 45.3509H28.8302L31.6051 55.1987C32.2287 57.4348 32.4888 58.996 32.3846 59.8852C33.9021 55.4406 34.9621 50.5943 35.5659 45.3501H38.9024V45.3516Z" fill="#5D87A1"/>
<path d="M87.4632 62.1272H77.6743V39.6335H80.9672V59.3583H87.4632V62.1272ZM75.1119 62.6707L71.3269 60.63C71.6625 60.3288 71.9835 60.0029 72.2725 59.6253C73.8813 57.5607 74.6837 54.5073 74.6837 50.4631C74.6837 43.0215 72.0108 39.2988 66.6629 39.2988C64.0405 39.2988 61.9949 40.2431 60.5319 42.1325C58.9244 44.1986 58.1219 47.241 58.1219 51.2634C58.1219 55.2174 58.8331 58.1179 60.2562 59.9578C61.558 61.6245 63.5204 62.459 66.1448 62.459C67.1237 62.459 68.022 62.328 68.8404 62.0639L73.7681 65.198L75.1119 62.6707ZM62.8505 57.6261C62.0168 56.1609 61.6 53.8082 61.6 50.5642C61.6 44.9006 63.1748 42.0655 66.3279 42.0655C67.976 42.0655 69.184 42.7436 69.9565 44.0967C70.7888 45.5641 71.2077 47.8958 71.2077 51.0946C71.2077 56.8048 69.6315 59.6602 66.4804 59.6602C64.8316 59.661 63.6237 58.9851 62.8505 57.6261ZM56.6869 55.8925C56.6869 57.8 56.0463 59.3649 54.7664 60.5907C53.4852 61.8115 51.7672 62.4233 49.6143 62.4233C47.6006 62.4233 45.6481 61.7205 43.7583 60.3223L44.6433 58.3907C46.2694 59.2805 47.7418 59.7228 49.0636 59.7228C50.3042 59.7228 51.2737 59.4223 51.9769 58.8265C52.6795 58.2285 53.0983 57.3897 53.0983 56.329C53.0983 54.9926 52.2453 53.8504 50.6804 52.8937C49.2374 52.028 46.3513 50.218 46.3513 50.218C44.7871 48.9725 44.004 47.6353 44.004 45.4324C44.004 43.6093 44.588 42.1376 45.7567 41.0179C46.9267 39.8939 48.4363 39.3337 50.2869 39.3337C52.198 39.3337 53.9354 39.8932 55.5003 41.0005L54.7065 42.9327C53.368 42.3114 52.0469 42.0008 50.7437 42.0008C49.6882 42.0008 48.8731 42.278 48.3065 42.8345C47.7351 43.3889 47.3828 44.0982 47.3828 44.9683C47.3828 46.2982 48.2538 47.4549 49.8613 48.4305C51.3237 49.2977 54.2816 51.139 54.2816 51.139C55.8858 52.3823 56.6869 53.7071 56.6869 55.8925Z" fill="#F8981D"/>
<path d="M92.4894 32.4825C90.3746 32.43 88.7373 32.6379 87.3631 33.2055C86.9663 33.3601 86.3355 33.3601 86.2803 33.8497C86.4946 34.0568 86.5193 34.391 86.7054 34.6769C87.0222 35.1927 87.5746 35.8866 88.0789 36.2485C88.6327 36.6628 89.1886 37.0729 89.7713 37.434C90.799 38.0548 91.9639 38.4159 92.9654 39.0346C93.5489 39.3943 94.1288 39.8597 94.713 40.2471C95.0002 40.4536 95.1841 40.7885 95.5568 40.9176V40.8389C95.3701 40.6069 95.317 40.2713 95.1338 40.013L94.3403 39.2659C93.5736 38.2606 92.6209 37.3829 91.5933 36.6621C90.7474 36.0931 88.8972 35.3197 88.5541 34.3682L88.5004 34.3158C89.0818 34.2626 89.7714 34.0568 90.3237 33.8987C91.2227 33.6674 92.0424 33.7199 92.9646 33.4886C93.389 33.385 93.8098 33.2552 94.2356 33.1274V32.8947C93.7575 32.43 93.4166 31.8127 92.9137 31.3736C91.5685 30.2391 90.0861 29.1295 88.5541 28.2008C87.7337 27.6836 86.6785 27.3507 85.805 26.9109C85.4903 26.7555 84.9598 26.6789 84.7745 26.4207C84.3007 25.8531 84.034 25.106 83.6903 24.4341C82.9264 23.0165 82.1845 21.4436 81.5253 19.9445C81.0486 18.9392 80.7587 17.9352 80.1773 17.0051C77.4543 12.6204 74.4972 9.9648 69.9524 7.35819C68.9756 6.81546 67.8136 6.58414 66.5723 6.29966L64.5899 6.19746C64.1669 6.01656 63.7433 5.52561 63.3741 5.29361C61.8662 4.36558 57.984 2.35417 56.875 5.00981C56.1607 6.68841 57.9317 8.33869 58.5399 9.19007C58.989 9.78113 59.5711 10.4537 59.8851 11.1248C60.0712 11.5633 60.1235 12.0287 60.3095 12.492C60.7324 13.6272 61.1278 14.8901 61.6837 15.9493C61.9737 16.4893 62.2898 17.0569 62.6605 17.5457C62.8726 17.8316 63.2418 17.958 63.3225 18.424C62.954 18.9378 62.925 19.7132 62.7135 20.3581C61.7629 23.2727 62.1342 26.8833 63.4816 29.0252C63.9031 29.6701 64.9089 31.0898 66.2541 30.5457C67.4451 30.0817 67.1813 28.6116 67.5236 27.3224C67.6021 27.011 67.5505 26.8066 67.7089 26.6023V26.6527C68.0774 27.3742 68.4494 28.0696 68.791 28.7932C69.6108 30.0561 71.038 31.3722 72.2269 32.247C72.8599 32.7138 73.3614 33.512 74.1542 33.7972V33.7199H74.1019C73.9413 33.4886 73.7065 33.385 73.4958 33.2055C73.0191 32.7407 72.4914 32.1732 72.1215 31.6581C71.014 30.2128 70.0337 28.613 69.1638 26.962C68.738 26.161 68.3709 25.2855 68.0279 24.4859C67.868 24.1772 67.868 23.7118 67.6028 23.5565C67.2053 24.1234 66.6261 24.6143 66.3361 25.309C65.8332 26.42 65.7809 27.7865 65.5942 29.2075L65.4902 29.2572C64.6486 29.0507 64.3558 28.2007 64.0361 27.4792C63.2447 25.6466 63.1117 22.7051 63.7984 20.5908C63.9823 20.0502 64.778 18.3474 64.4604 17.8323C64.3013 17.3386 63.7723 17.0576 63.4823 16.6688C63.1414 16.1799 62.768 15.5613 62.5303 15.0185C61.8966 13.5747 61.5776 11.9748 60.8951 10.5317C60.5761 9.85916 60.0224 9.16314 59.5739 8.54376C59.0704 7.84774 58.5166 7.3575 58.1184 6.53235C57.9868 6.24856 57.8022 5.78455 58.0137 5.4759C58.0653 5.26875 58.1728 5.19141 58.3836 5.13963C58.7259 4.85722 59.7041 5.21627 60.0471 5.37163C61.0267 5.75831 61.8457 6.11944 62.6633 6.66078C63.0332 6.91972 63.43 7.40997 63.9045 7.53909H64.4604C65.3042 7.71862 66.2555 7.58881 67.0497 7.8222C68.4494 8.26135 69.7175 8.90558 70.8548 9.60091C74.3155 11.7435 77.1693 14.7879 79.0959 18.424C79.412 19.0165 79.5464 19.5592 79.835 20.1772C80.3916 21.4422 81.0798 22.732 81.6321 23.9701C82.1873 25.1819 82.7164 26.4193 83.5092 27.426C83.9046 27.9674 85.4931 28.2512 86.2053 28.535C86.7322 28.7663 87.5527 28.972 88.0279 29.2558C88.9269 29.7965 89.8223 30.4172 90.6675 31.0118C91.0883 31.3211 92.4109 31.966 92.4894 32.4825ZM65.5383 10.0663C65.1735 10.0626 64.8099 10.1063 64.4569 10.1961V10.2479H64.5078C64.7207 10.6601 65.0906 10.946 65.3544 11.3057C65.5673 11.7193 65.7519 12.1295 65.9606 12.5424L66.0115 12.4913C66.3842 12.2338 66.5695 11.8208 66.5695 11.2015C66.409 11.0192 66.3842 10.841 66.2505 10.6601C66.0949 10.4019 65.7519 10.2735 65.5383 10.0663Z" fill="#5D87A1"/>
<path d="M94.9401 61.9605H95.5568V60.3422H94.6317L93.8772 61.4466L93.0573 60.3422H92.1664V61.9605H92.7489V60.7293H92.7816L93.6405 61.9605H94.0843L94.9401 60.7293V61.9605ZM89.972 61.9605H90.6246V60.6165H91.4788V60.3418H89.082V60.6165H89.9705L89.972 61.9605Z" fill="#F8981D"/>
</g>
<defs>
<clipPath id="clip0_18414_85562">
<rect width="96" height="88" fill="white"/>
</clipPath>
</defs>
</svg>
