<svg width="78" height="73" viewBox="0 0 78 73" fill="none" xmlns="http://www.w3.org/2000/svg">
<g clip-path="url(#clip0_26512_35412)">
<path d="M38.5587 59.3092C38.3049 59.3092 38.0528 59.2444 37.8302 59.1198L35.5115 57.7844C35.1652 57.596 35.3342 57.5294 35.4484 57.491C35.9102 57.3337 36.0039 57.2982 36.4968 57.0259C36.5486 56.9972 36.6164 57.0073 36.6694 57.0378L38.4507 58.066C38.5151 58.0998 38.6063 58.0998 38.666 58.066L45.6115 54.1662C45.6759 54.1307 45.7176 54.058 45.7176 53.9836V46.1874C45.7176 46.1096 45.6759 46.0402 45.6101 46.0013L38.6674 42.1049C38.603 42.0677 38.5178 42.0677 38.4535 42.1049L31.5121 46.0013C31.4448 46.0385 31.4021 46.1112 31.4021 46.1857V53.9819C31.4021 54.0563 31.4438 54.1273 31.5099 54.1628L33.4118 55.2316C34.4446 55.7339 35.0757 55.142 35.0757 54.5467V46.852C35.0757 46.742 35.1643 46.6575 35.2773 46.6575H36.157C36.2666 46.6575 36.357 46.742 36.357 46.852V54.5501C36.357 55.8895 35.6059 56.659 34.3003 56.659C33.8986 56.659 33.5822 56.659 32.699 56.2362L30.877 55.2147C30.4267 54.961 30.1486 54.4875 30.1486 53.9819V46.1857C30.1486 45.6783 30.4267 45.2048 30.877 44.9545L37.8295 41.053C38.2694 40.8112 38.8536 40.8112 39.2899 41.053L46.2338 44.9562C46.6823 45.2082 46.9622 45.68 46.9622 46.1874V53.9836C46.9622 54.4892 46.6823 54.961 46.2338 55.2147L39.2899 59.1162C39.0674 59.2413 38.8153 59.3056 38.558 59.3056" fill="#689F63"/>
<path d="M40.7042 53.937C37.6652 53.937 37.028 52.5801 37.028 51.4419C37.028 51.3337 37.1177 51.2474 37.2292 51.2474H38.1263C38.2254 51.2474 38.3088 51.3176 38.3245 51.4128C38.4601 52.302 38.8634 52.7505 40.7011 52.7505C42.165 52.7505 42.7874 52.4289 42.7874 51.6738C42.7874 51.2392 42.61 50.9161 40.336 50.6997C38.434 50.517 37.2587 50.1095 37.2587 48.6297C37.2587 47.2666 38.4409 46.4549 40.4212 46.4549C42.6448 46.4549 43.747 47.2058 43.8861 48.8191C43.8914 48.8749 43.8705 48.929 43.8322 48.9696C43.794 49.0085 43.7401 49.0322 43.6845 49.0322H42.7821C42.6883 49.0322 42.6066 48.9679 42.5874 48.88C42.3701 47.9448 41.8451 47.6455 40.4177 47.6455C38.82 47.6455 38.6339 48.1866 38.6339 48.5925C38.6339 49.0846 38.853 49.2284 41.0088 49.5057C43.1438 49.7814 44.1574 50.1703 44.1574 51.6298C44.1574 53.1011 42.8952 53.945 40.6941 53.945M49.154 45.677H49.387C49.5782 45.677 49.6147 45.5467 49.6147 45.4706C49.6147 45.2711 49.4739 45.2711 49.3956 45.2711H49.1557L49.154 45.677ZM48.8706 45.0377H49.387C49.5643 45.0377 49.912 45.0377 49.912 45.4233C49.912 45.6922 49.7347 45.748 49.6286 45.7818C49.8355 45.7953 49.8494 45.9273 49.8772 46.1133C49.8911 46.23 49.9137 46.4312 49.9555 46.4989H49.6373C49.6286 46.4312 49.5799 46.0592 49.5799 46.0389C49.5591 45.956 49.5295 45.9154 49.4235 45.9154H49.1609V46.5005H48.8706V45.0377ZM48.2499 45.7649C48.2499 46.3703 48.7524 46.8608 49.3696 46.8608C49.992 46.8608 50.4944 46.3602 50.4944 45.7649C50.4944 45.1578 49.985 44.6758 49.3678 44.6758C48.7593 44.6758 48.2482 45.151 48.2482 45.7632M50.71 45.7683C50.71 46.4853 50.1067 47.0705 49.3713 47.0705C48.6411 47.0705 48.0326 46.4921 48.0326 45.7683C48.0326 45.0309 48.655 44.4661 49.3713 44.4661C50.0928 44.4661 50.7083 45.0326 50.7083 45.7683" fill="#689F63"/>
<path fill-rule="evenodd" clip-rule="evenodd" d="M17.0508 28.8041C17.0508 28.493 16.8822 28.2072 16.6061 28.0524L9.24224 23.9311C9.11794 23.8601 8.97868 23.8229 8.83751 23.8178H8.76136C8.62018 23.8229 8.48093 23.8601 8.35453 23.9311L0.991014 28.0524C0.716668 28.208 0.545593 28.4938 0.545593 28.805L0.561762 39.9057C0.561762 40.0596 0.643474 40.2034 0.78256 40.2795C0.918168 40.3606 1.08855 40.3606 1.22416 40.2795L5.60186 37.8408C5.87829 37.6808 6.04693 37.3981 6.04693 37.0899V31.904C6.04693 31.5945 6.21558 31.3087 6.49114 31.1548L8.35488 30.1107C8.49327 30.0329 8.64522 29.9944 8.79995 29.9944C8.95225 29.9944 9.10768 30.0326 9.24224 30.1106L11.1051 31.1543C11.3809 31.3082 11.5502 31.594 11.5502 31.9035V37.0891C11.5502 37.3969 11.7211 37.681 11.9961 37.84L16.3711 40.2769C16.5084 40.3564 16.6793 40.3564 16.8161 40.2769C16.951 40.2008 17.0366 40.0571 17.0366 39.9032L17.0508 28.8041ZM51.7992 34.5838C51.7992 34.6611 51.7569 34.7326 51.6879 34.7709L49.1587 36.1891C49.09 36.2275 49.0051 36.2275 48.9366 36.1891L46.407 34.7709C46.3375 34.7325 46.2958 34.6609 46.2958 34.5838V31.7434C46.2958 31.6659 46.3375 31.5945 46.4053 31.5557L48.9332 30.1351C49.0027 30.0962 49.0879 30.0962 49.1574 30.1351L51.687 31.5557C51.7566 31.5945 51.7983 31.6659 51.7983 31.7434L51.7992 34.5838ZM52.4824 13.5456C52.3444 13.4708 52.1765 13.4729 52.0402 13.5501C51.9045 13.6279 51.8207 13.77 51.8207 13.9239V24.9164C51.8207 25.0246 51.7616 25.1244 51.6653 25.1785C51.5697 25.2326 51.4506 25.2326 51.3541 25.1785L49.5095 24.145C49.2348 23.9905 48.8965 23.9905 48.6207 24.145L41.2544 28.2804C40.9792 28.4343 40.8094 28.7201 40.8094 29.0279V37.301C40.8094 37.6105 40.9792 37.8946 41.2544 38.0502L48.6207 42.1884C48.8958 42.3423 49.2345 42.3423 49.5104 42.1884L56.8767 38.0485C57.1514 37.8929 57.3217 37.6088 57.3217 37.2993V16.6808C57.3217 16.3669 57.1461 16.0782 56.8645 15.9249L52.4824 13.5456ZM77.0124 31.6686C77.286 31.514 77.4545 31.2286 77.4545 30.9208V28.9158C77.4545 28.6073 77.2859 28.3227 77.0117 28.1674L69.6923 24.0343C69.4159 23.8787 69.0769 23.8787 68.8004 24.0343L61.4359 28.1691C61.1595 28.3247 60.9908 28.6088 60.9908 28.9183V37.188C60.9908 37.4992 61.1629 37.7867 61.4394 37.9406L68.757 41.9977C69.0265 42.1482 69.3568 42.1499 69.6297 42.0027L74.0561 39.6098C74.1952 39.5337 74.2839 39.3899 74.2839 39.2343C74.2839 39.0787 74.1987 38.9333 74.0596 38.8572L66.6498 34.7206C66.5107 34.6445 66.4256 34.5008 66.4256 34.3469V31.7527C66.4256 31.5978 66.509 31.455 66.6481 31.3779L68.9534 30.0842C69.0908 30.0064 69.2594 30.0064 69.3968 30.0842L71.7038 31.3779C71.8412 31.454 71.9264 31.5978 71.9264 31.7517V33.7912C71.9264 33.9451 72.0116 34.0888 72.1489 34.1666C72.2863 34.2427 72.4566 34.2427 72.594 34.1649L77.0124 31.6686Z" fill="#333333"/>
<path fill-rule="evenodd" clip-rule="evenodd" d="M69.139 31.2817C69.1912 31.2518 69.2566 31.2518 69.3094 31.2817L70.7229 32.0749C70.7757 32.1046 70.8081 32.1594 70.8081 32.2186V33.8066C70.8081 33.8658 70.7757 33.9206 70.7229 33.9503L69.3094 34.7435C69.2566 34.7734 69.1912 34.7734 69.139 34.7435L67.7265 33.9503C67.6726 33.9206 67.6395 33.8658 67.6395 33.8066V32.2186C67.6395 32.1594 67.6708 32.1046 67.7247 32.0749L69.139 31.2817Z" fill="#689F63"/>
<mask id="mask0_26512_35412" style="mask-type:luminance" maskUnits="userSpaceOnUse" x="20" y="23" width="18" height="20">
<path d="M28.4905 24.0756L21.166 28.1879C20.8916 28.3418 20.7233 28.6259 20.7233 28.933V37.1635C20.7233 37.4708 20.8916 37.7548 21.166 37.9087L28.4911 42.0242C28.7649 42.1776 29.1025 42.1776 29.376 42.0242L36.6999 37.9087C36.9728 37.7548 37.1415 37.4707 37.1415 37.1635V28.933C37.1415 28.6259 36.9728 28.3418 36.6981 28.1879L29.3753 24.0756C29.2379 23.9989 29.085 23.9606 28.932 23.9606C28.779 23.9606 28.626 23.9989 28.4886 24.0756" fill="white"/>
</mask>
<g mask="url(#mask0_26512_35412)">
<path d="M44.5418 27.4897L23.9024 17.6488L13.3198 38.6486L33.9586 48.4899L44.5418 27.4897Z" fill="url(#paint0_linear_26512_35412)"/>
</g>
<mask id="mask1_26512_35412" style="mask-type:luminance" maskUnits="userSpaceOnUse" x="20" y="23" width="17" height="20">
<path d="M20.9018 37.6861C20.9719 37.7746 21.0595 37.8512 21.1626 37.9087L27.4458 41.4389L28.4924 42.0241C28.6488 42.112 28.8272 42.1492 29.0025 42.1365C29.0609 42.132 29.1193 42.1213 29.1763 42.1056L36.9015 28.3464C36.8424 28.2838 36.7732 28.2314 36.6956 28.1874L31.8996 25.4934L29.3644 24.0745C29.2925 24.034 29.2144 24.0052 29.1349 23.9849L20.9018 37.6861Z" fill="white"/>
</mask>
<g mask="url(#mask1_26512_35412)">
<path d="M11.9789 30.4003L26.5524 49.5869L45.8261 35.7354L31.2517 16.5493L11.9789 30.4003Z" fill="url(#paint1_linear_26512_35412)"/>
</g>
<mask id="mask2_26512_35412" style="mask-type:luminance" maskUnits="userSpaceOnUse" x="21" y="23" width="17" height="20">
<path d="M28.8414 23.9653C28.7185 23.9771 28.5984 24.0143 28.4876 24.0756L21.1839 28.1761L29.0596 42.1298C29.1691 42.1146 29.2769 42.079 29.3743 42.0243L36.6989 37.9087C36.9249 37.7812 37.0796 37.5654 37.1265 37.3208L29.0978 23.9793C29.0387 23.968 28.9796 23.9621 28.9188 23.9621C28.8944 23.9621 28.8701 23.9633 28.8458 23.9655" fill="white"/>
</mask>
<g mask="url(#mask2_26512_35412)">
<path d="M21.1839 23.9621V42.1301H37.1236V23.9621H21.1839Z" fill="url(#paint2_linear_26512_35412)"/>
</g>
</g>
<defs>
<linearGradient id="paint0_linear_26512_35412" x1="34.2159" y1="22.5538" x2="24.0978" y2="43.7733" gradientUnits="userSpaceOnUse">
<stop offset="0.3" stop-color="#3E863D"/>
<stop offset="0.5" stop-color="#55934F"/>
<stop offset="0.8" stop-color="#5AAD45"/>
</linearGradient>
<linearGradient id="paint1_linear_26512_35412" x1="19.353" y1="40.1036" x2="38.2481" y2="25.7509" gradientUnits="userSpaceOnUse">
<stop offset="0.57" stop-color="#3E863D"/>
<stop offset="0.72" stop-color="#619857"/>
<stop offset="1" stop-color="#76AC64"/>
</linearGradient>
<linearGradient id="paint2_linear_26512_35412" x1="21.1893" y1="33.0466" x2="37.1266" y2="33.0466" gradientUnits="userSpaceOnUse">
<stop offset="0.16" stop-color="#6BBF47"/>
<stop offset="0.38" stop-color="#79B461"/>
<stop offset="0.47" stop-color="#75AC64"/>
<stop offset="0.7" stop-color="#659E5A"/>
<stop offset="0.9" stop-color="#3E863D"/>
</linearGradient>
<clipPath id="clip0_26512_35412">
<rect width="76.9091" height="45.8182" fill="white" transform="translate(0.54541 13.4908)"/>
</clipPath>
</defs>
</svg>
