<svg width="107" height="73" viewBox="0 0 107 73" fill="none" xmlns="http://www.w3.org/2000/svg">
<g clip-path="url(#clip0_26512_35414)">
<path d="M21.767 40.265C23.9071 40.265 25.642 38.5301 25.642 36.39C25.642 34.2499 23.9071 32.515 21.767 32.515C19.6269 32.515 17.892 34.2499 17.892 36.39C17.892 38.5301 19.6269 40.265 21.767 40.265Z" fill="#087EA4"/>
<path d="M21.7654 45.1086C32.4658 45.1086 41.1402 41.2051 41.1402 36.3899C41.1402 31.5748 32.4658 27.6713 21.7654 27.6713C11.065 27.6713 2.39062 31.5748 2.39062 36.3899C2.39062 41.2051 11.065 45.1086 21.7654 45.1086Z" stroke="#087EA4" stroke-width="1.93748"/>
<path d="M14.2146 40.7495C19.5648 50.0163 27.2825 55.5768 31.4526 53.1692C35.6226 50.7616 34.666 41.2976 29.3158 32.0308C23.9656 22.764 16.2478 17.2035 12.0778 19.6111C7.9077 22.0186 8.86439 31.4826 14.2146 40.7495Z" stroke="#087EA4" stroke-width="1.93748"/>
<path d="M14.2141 32.0308C8.86392 41.2976 7.90723 50.7616 12.0773 53.1692C16.2474 55.5768 23.9651 50.0163 29.3153 40.7495C34.6655 31.4826 35.6222 22.0186 31.4521 19.6111C27.282 17.2035 19.5643 22.764 14.2141 32.0308Z" stroke="#087EA4" stroke-width="1.93748"/>
</g>
<path d="M48.6018 44.3999V29.6726H54.687C54.8302 29.6726 55.0143 29.6794 55.2393 29.6931C55.4643 29.6999 55.6723 29.7204 55.8632 29.7544C56.7154 29.884 57.4177 30.1669 57.97 30.6033C58.5291 31.0397 58.9416 31.5919 59.2075 32.2601C59.4802 32.9215 59.6166 33.6579 59.6166 34.4692C59.6166 35.6692 59.3132 36.7022 58.7063 37.5681C58.0995 38.4272 57.1688 38.959 55.9143 39.1635L54.8609 39.2556H51.0666V44.3999H48.6018ZM57.0598 44.3999L54.1552 38.4067L56.6609 37.8544L59.8518 44.3999H57.0598ZM51.0666 36.9544H54.5848C54.7211 36.9544 54.8745 36.9476 55.045 36.934C55.2154 36.9204 55.3723 36.8931 55.5154 36.8522C55.9245 36.7499 56.245 36.5692 56.4768 36.3101C56.7154 36.051 56.8825 35.7579 56.9779 35.4306C57.0802 35.1033 57.1313 34.7829 57.1313 34.4692C57.1313 34.1556 57.0802 33.8351 56.9779 33.5079C56.8825 33.1738 56.7154 32.8772 56.4768 32.6181C56.245 32.359 55.9245 32.1783 55.5154 32.076C55.3723 32.0351 55.2154 32.0113 55.045 32.0044C54.8745 31.9908 54.7211 31.984 54.5848 31.984H51.0666V36.9544ZM67.1266 44.7067C66.0084 44.7067 65.0266 44.4647 64.1811 43.9806C63.3357 43.4965 62.6743 42.8249 62.197 41.9658C61.7266 41.1067 61.4914 40.1181 61.4914 38.9999C61.4914 37.7931 61.7232 36.7465 62.1868 35.8601C62.6505 34.9669 63.2948 34.2749 64.1198 33.784C64.9448 33.2931 65.8993 33.0476 66.9834 33.0476C68.1289 33.0476 69.1005 33.3169 69.8982 33.8556C70.7027 34.3874 71.2993 35.1408 71.688 36.1158C72.0766 37.0908 72.2232 38.2397 72.1277 39.5624H69.6834V38.6624C69.6766 37.4624 69.4652 36.5863 69.0493 36.034C68.6334 35.4817 67.9789 35.2056 67.0857 35.2056C66.0766 35.2056 65.3266 35.5192 64.8357 36.1465C64.3448 36.7669 64.0993 37.6772 64.0993 38.8772C64.0993 39.9954 64.3448 40.8613 64.8357 41.4749C65.3266 42.0885 66.0425 42.3954 66.9834 42.3954C67.5902 42.3954 68.1118 42.2624 68.5482 41.9965C68.9914 41.7238 69.3323 41.3317 69.5709 40.8204L72.005 41.5567C71.5823 42.5522 70.9277 43.326 70.0414 43.8783C69.1618 44.4306 68.1902 44.7067 67.1266 44.7067ZM63.322 39.5624V37.701H70.9209V39.5624H63.322ZM77.2986 44.7067C76.5008 44.7067 75.8258 44.5567 75.2736 44.2567C74.7213 43.9499 74.302 43.5442 74.0156 43.0397C73.7361 42.5351 73.5963 41.9794 73.5963 41.3726C73.5963 40.8408 73.6849 40.3635 73.8622 39.9408C74.0395 39.5113 74.3122 39.1431 74.6804 38.8363C75.0486 38.5226 75.5258 38.2669 76.1122 38.0692C76.5554 37.926 77.0736 37.7965 77.6668 37.6806C78.2668 37.5647 78.9145 37.459 79.6099 37.3635C80.3122 37.2613 81.0452 37.1522 81.8088 37.0363L80.9293 37.5374C80.9361 36.7738 80.7656 36.2113 80.4179 35.8499C80.0702 35.4885 79.4838 35.3079 78.6588 35.3079C78.1611 35.3079 77.6804 35.4238 77.2168 35.6556C76.7531 35.8874 76.4293 36.2863 76.2452 36.8522L73.9952 36.1465C74.2679 35.2124 74.7861 34.4624 75.5497 33.8965C76.3202 33.3306 77.3565 33.0476 78.6588 33.0476C79.6406 33.0476 80.5031 33.2079 81.2463 33.5283C81.9963 33.8488 82.552 34.3738 82.9133 35.1033C83.1111 35.4919 83.2304 35.8908 83.2713 36.2999C83.3122 36.7022 83.3327 37.1419 83.3327 37.6192V44.3999H81.1747V42.0067L81.5327 42.3954C81.0349 43.1931 80.452 43.7794 79.7838 44.1544C79.1224 44.5226 78.294 44.7067 77.2986 44.7067ZM77.7895 42.7431C78.3486 42.7431 78.8258 42.6442 79.2213 42.4465C79.6168 42.2488 79.9304 42.0067 80.1622 41.7204C80.4008 41.434 80.5611 41.1647 80.6429 40.9124C80.7724 40.5988 80.844 40.2408 80.8577 39.8385C80.8781 39.4294 80.8883 39.0988 80.8883 38.8465L81.6452 39.0715C80.902 39.1874 80.2645 39.2897 79.7327 39.3783C79.2008 39.4669 78.744 39.5522 78.3622 39.634C77.9804 39.709 77.6429 39.7942 77.3497 39.8897C77.0633 39.9919 76.8213 40.1113 76.6236 40.2476C76.4258 40.384 76.2724 40.5408 76.1633 40.7181C76.0611 40.8954 76.0099 41.1033 76.0099 41.3419C76.0099 41.6147 76.0781 41.8567 76.2145 42.0681C76.3508 42.2726 76.5486 42.4363 76.8077 42.559C77.0736 42.6817 77.4008 42.7431 77.7895 42.7431ZM90.7919 44.7067C89.6532 44.7067 88.6816 44.4544 87.8771 43.9499C87.0725 43.4385 86.4555 42.7431 86.0259 41.8635C85.6032 40.984 85.3884 39.9885 85.3816 38.8772C85.3884 37.7454 85.61 36.7431 86.0464 35.8704C86.4896 34.9908 87.1169 34.3022 87.9282 33.8044C88.7396 33.2999 89.7044 33.0476 90.8225 33.0476C92.0771 33.0476 93.1373 33.3647 94.0032 33.9988C94.876 34.626 95.4453 35.4851 95.7112 36.576L93.2566 37.2408C93.0657 36.6476 92.7487 36.1874 92.3055 35.8601C91.8623 35.526 91.3578 35.359 90.7919 35.359C90.151 35.359 89.6225 35.5124 89.2066 35.8192C88.7907 36.1192 88.4839 36.5351 88.2862 37.0669C88.0885 37.5988 87.9896 38.2022 87.9896 38.8772C87.9896 39.9272 88.2248 40.776 88.6953 41.4238C89.1657 42.0715 89.8646 42.3954 90.7919 42.3954C91.4464 42.3954 91.9612 42.2454 92.3362 41.9454C92.718 41.6454 93.0044 41.2124 93.1953 40.6465L95.7112 41.209C95.3703 42.334 94.7737 43.1999 93.9214 43.8067C93.0691 44.4067 92.026 44.7067 90.7919 44.7067ZM104.234 44.3999C103.505 44.5363 102.789 44.5942 102.087 44.5738C101.391 44.5601 100.767 44.434 100.215 44.1954C99.6629 43.9499 99.2436 43.5647 98.9572 43.0397C98.7049 42.5624 98.572 42.0749 98.5584 41.5772C98.5447 41.0794 98.5379 40.5169 98.5379 39.8897V30.2863H100.992V39.7465C100.992 40.1897 100.996 40.5783 101.003 40.9124C101.016 41.2465 101.088 41.5192 101.217 41.7306C101.463 42.1397 101.855 42.3681 102.394 42.4158C102.932 42.4635 103.546 42.4363 104.234 42.334V44.3999ZM96.5334 35.2874V33.3544H104.234V35.2874H96.5334Z" fill="#087EA4"/>
<defs>
<clipPath id="clip0_26512_35414">
<rect width="42.6246" height="39.2727" fill="white" transform="translate(0.454529 16.7635)"/>
</clipPath>
</defs>
</svg>
